<mxfile host="app.diagrams.net" agent="Mozilla/5.0 (Macintosh; Intel Mac OS X 10_15_7) AppleWebKit/537.36 (KHTML, like Gecko) Chrome/138.0.0.0 Safari/537.36 Edg/138.0.0.0" version="27.2.0">
  <diagram name="Page-1" id="RoeMt7QxwKFrTWKcN7r6">
    <mxGraphModel dx="1226" dy="727" grid="1" gridSize="10" guides="1" tooltips="1" connect="1" arrows="1" fold="1" page="1" pageScale="1" pageWidth="850" pageHeight="1100" math="0" shadow="0">
      <root>
        <mxCell id="0" />
        <mxCell id="1" parent="0" />
        <mxCell id="4th-ts9sia6EQ9fb2ZEH-17" value="Pod" style="whiteSpace=wrap;strokeWidth=2;" vertex="1" parent="1">
          <mxGeometry x="180" y="448" width="305" height="236" as="geometry" />
        </mxCell>
        <mxCell id="4th-ts9sia6EQ9fb2ZEH-18" value="End User" style="rounded=1;arcSize=20;strokeWidth=2" vertex="1" parent="1">
          <mxGeometry x="301" y="100" width="93" height="54" as="geometry" />
        </mxCell>
        <mxCell id="4th-ts9sia6EQ9fb2ZEH-19" value="OpenShift Route &#xa; https://unit-converter-dabb52-prod.apps.silver.devops.gov.bc.ca/" style="rounded=1;arcSize=20;strokeWidth=2" vertex="1" parent="1">
          <mxGeometry x="236" y="208" width="223" height="78" as="geometry" />
        </mxCell>
        <mxCell id="4th-ts9sia6EQ9fb2ZEH-20" value="OpenShift Service" style="rounded=1;arcSize=20;strokeWidth=2" vertex="1" parent="1">
          <mxGeometry x="213" y="340" width="157" height="54" as="geometry" />
        </mxCell>
        <mxCell id="4th-ts9sia6EQ9fb2ZEH-21" value="Container" style="rounded=1;arcSize=20;strokeWidth=2" vertex="1" parent="1">
          <mxGeometry x="241" y="473" width="100" height="54" as="geometry" />
        </mxCell>
        <mxCell id="4th-ts9sia6EQ9fb2ZEH-22" value="Application Files &#xa; (unit-converter.html)" style="whiteSpace=wrap;strokeWidth=2;" vertex="1" parent="1">
          <mxGeometry x="246" y="581" width="205" height="78" as="geometry" />
        </mxCell>
        <mxCell id="4th-ts9sia6EQ9fb2ZEH-23" value="1. Clicks Link on External Page" style="curved=1;startArrow=none;endArrow=block;exitX=0.44;exitY=1;entryX=0.47;entryY=0;rounded=0;" edge="1" parent="1" source="4th-ts9sia6EQ9fb2ZEH-18" target="4th-ts9sia6EQ9fb2ZEH-19">
          <mxGeometry relative="1" as="geometry">
            <Array as="points">
              <mxPoint x="336" y="181" />
            </Array>
          </mxGeometry>
        </mxCell>
        <mxCell id="4th-ts9sia6EQ9fb2ZEH-24" value="2. Forwards Request" style="curved=1;startArrow=none;endArrow=block;exitX=0.35;exitY=1;entryX=0.5;entryY=0;rounded=0;" edge="1" parent="1" source="4th-ts9sia6EQ9fb2ZEH-19" target="4th-ts9sia6EQ9fb2ZEH-20">
          <mxGeometry relative="1" as="geometry">
            <Array as="points">
              <mxPoint x="291" y="313" />
            </Array>
          </mxGeometry>
        </mxCell>
        <mxCell id="4th-ts9sia6EQ9fb2ZEH-25" value="4. Serves Static Files" style="curved=1;startArrow=none;endArrow=block;exitX=0.5;exitY=1;entryX=0.33;entryY=0;rounded=0;" edge="1" parent="1" source="4th-ts9sia6EQ9fb2ZEH-21" target="4th-ts9sia6EQ9fb2ZEH-22">
          <mxGeometry x="0.1615" y="17" relative="1" as="geometry">
            <Array as="points">
              <mxPoint x="291" y="554" />
            </Array>
            <mxPoint as="offset" />
          </mxGeometry>
        </mxCell>
        <mxCell id="4th-ts9sia6EQ9fb2ZEH-26" value="5. HTTP Response (HTML)" style="curved=1;startArrow=none;endArrow=block;exitX=0.67;exitY=0;entryX=0.66;entryY=1;rounded=0;" edge="1" parent="1" source="4th-ts9sia6EQ9fb2ZEH-22" target="4th-ts9sia6EQ9fb2ZEH-19">
          <mxGeometry relative="1" as="geometry">
            <Array as="points">
              <mxPoint x="407" y="554" />
              <mxPoint x="407" y="313" />
            </Array>
          </mxGeometry>
        </mxCell>
        <mxCell id="4th-ts9sia6EQ9fb2ZEH-27" value="6. Browser Renders Page" style="curved=1;startArrow=none;endArrow=block;exitX=0.53;exitY=0;entryX=0.57;entryY=1;rounded=0;" edge="1" parent="1" source="4th-ts9sia6EQ9fb2ZEH-19" target="4th-ts9sia6EQ9fb2ZEH-18">
          <mxGeometry relative="1" as="geometry">
            <Array as="points">
              <mxPoint x="360" y="181" />
            </Array>
          </mxGeometry>
        </mxCell>
        <mxCell id="4th-ts9sia6EQ9fb2ZEH-28" value="3. Request" style="curved=1;startArrow=none;endArrow=block;rounded=0;" edge="1" parent="1" source="4th-ts9sia6EQ9fb2ZEH-20" target="4th-ts9sia6EQ9fb2ZEH-17">
          <mxGeometry relative="1" as="geometry">
            <Array as="points" />
          </mxGeometry>
        </mxCell>
      </root>
    </mxGraphModel>
  </diagram>
</mxfile>
